<?xml version="1.0" standalone="no"?><!DOCTYPE svg PUBLIC "-//W3C//DTD SVG 1.1//EN" "http://www.w3.org/Graphics/SVG/1.1/DTD/svg11.dtd"><svg t="1617940839456" class="icon" viewBox="0 0 1024 1024" version="1.1" xmlns="http://www.w3.org/2000/svg" p-id="2998" xmlns:xlink="http://www.w3.org/1999/xlink" width="200" height="200"><defs><style type="text/css"></style></defs><path d="M860.8 723.2l6.4 57.6-6.4-57.6c12.8 0 25.6-3.2 35.2-12.8 6.4-9.6 6.4-22.4 3.2-32l57.6-12.8-57.6 12.8L800 342.4c-6.4-28.8-25.6-51.2-48-64-9.6-6.4-22.4-9.6-32-9.6H182.4c-22.4-3.2-41.6 6.4-51.2 25.6-6.4 9.6-6.4 19.2-9.6 28.8v342.4c0 19.2 9.6 38.4 28.8 48 6.4 3.2 12.8 6.4 19.2 6.4h192l19.2 25.6 147.2 188.8c6.4 9.6 19.2 12.8 28.8 9.6 16-3.2 25.6-19.2 22.4-35.2l-9.6-118.4-6.4-67.2h297.6z m-233.6 57.6l9.6 128c3.2 28.8-9.6 54.4-28.8 73.6-35.2 32-92.8 28.8-124.8-6.4l-156.8-195.2H179.2c-19.2 0-38.4-6.4-57.6-16-35.2-19.2-57.6-57.6-57.6-99.2V323.2c0-19.2 6.4-38.4 16-57.6 19.2-38.4 57.6-60.8 99.2-54.4h537.6c67.2 3.2 121.6 48 137.6 112l102.4 339.2c6.4 28.8 3.2 57.6-12.8 80-19.2 22.4-48 38.4-76.8 38.4h-240zM304 268.8v451.2h57.6V268.8H304z" fill="#e6e6e6" p-id="2999"></path></svg>