<?xml version="1.0" standalone="no"?><!DOCTYPE svg PUBLIC "-//W3C//DTD SVG 1.1//EN" "http://www.w3.org/Graphics/SVG/1.1/DTD/svg11.dtd"><svg t="1617248387148" class="icon" viewBox="0 0 1024 1024" version="1.1" xmlns="http://www.w3.org/2000/svg" p-id="10925" xmlns:xlink="http://www.w3.org/1999/xlink" width="200" height="200"><defs><style type="text/css"></style></defs><path d="M98.6 870.8h-30v-20c0-11.1 0.1-25.6 0.1-39.5 0.1-13.3 0.1-25.8 0.1-34.9v-6.3c-0.5-45.7-1.9-184.8 115.8-296.7 48.7-46.3 114.6-74.2 207.6-87.9 10.9-1.6 21.1 5.9 22.7 16.9 1.6 10.9-5.9 21.1-16.9 22.7-85.5 12.6-142.8 36.4-185.8 77.3C107 602.2 108.3 728.2 108.7 769.6v6.8c0 9.2 0 21.8-0.1 35.1 0 5.3 0 10.7-0.1 15.9 1.7-1.4 3-3.1 3.8-5.2 23.6-60.9 52.8-110.8 86.7-148.3 34.7-38.3 75.3-64.7 120.5-78.3 62-18.6 129.2-23.8 217.5-26.1l20.5-0.5v207c0 3 1.2 5.9 3.5 8.2 5.6 5.7 15.3 6 21.4 0.7l328.8-288 0.9-0.9c2.9-3.1 3.4-6.4 3.3-8.6-0.2-3.2-1.7-6.2-4.3-8.5l-328.8-282c-2.8-2.4-6.4-3.7-10.2-3.7-8 0-14.5 5.7-14.5 12.6v187.6c0 11-9 20-20 20s-20-9-20-20V205.9c0-29 24.5-52.6 54.5-52.6 13.4 0 26.2 4.7 36.2 13.3l328.8 282.1c11.1 9.5 17.6 22.6 18.3 36.9 0.7 14.2-4.5 27.8-14.5 38.3l-0.1 0.2c-1.1 1.1-2.2 2.2-3.3 3.1L608.7 815c-10.6 9.3-24.4 14.1-38.7 13.6-14.4-0.5-27.7-6.4-37.6-16.4-9.6-9.8-14.9-22.6-14.9-36.2V610c-75 2.5-133.5 7.9-186.5 23.8-77.2 23.2-138.3 91.4-181.4 202.7-7.9 20.5-28.4 34.3-51 34.3z" p-id="10926" fill="#e6e6e6"></path></svg>