<?xml version="1.0" standalone="no"?><!DOCTYPE svg PUBLIC "-//W3C//DTD SVG 1.1//EN" "http://www.w3.org/Graphics/SVG/1.1/DTD/svg11.dtd"><svg t="1616987796597" class="icon" viewBox="0 0 1024 1024" version="1.1" xmlns="http://www.w3.org/2000/svg" p-id="7829" xmlns:xlink="http://www.w3.org/1999/xlink" width="200" height="200"><defs><style type="text/css"></style></defs><path d="M874.666667 490.666667c-23.466667 0-42.666667 19.2-42.666667 42.666666v298.666667H533.333333c-23.466667 0-42.666667 19.2-42.666666 42.666667s19.2 42.666667 42.666666 42.666666h341.333334c23.466667 0 42.666667-19.2 42.666666-42.666666V533.333333c0-23.466667-19.2-42.666667-42.666666-42.666666M533.333333 149.333333c0-23.466667-19.2-42.666667-42.666666-42.666666H149.333333c-23.466667 0-42.666667 19.2-42.666666 42.666666v341.333334c0 23.466667 19.2 42.666667 42.666666 42.666666s42.666667-19.2 42.666667-42.666666V192h298.666667c23.466667 0 42.666667-19.2 42.666666-42.666667M426.666667 810.666667c23.466667 0 42.666667-19.2 42.666666-42.666667v-170.666667-8.533333-4.266667c0-2.133333 0-2.133333-2.133333-4.266666 0-2.133333-2.133333-2.133333-2.133333-4.266667s-2.133333-2.133333-2.133334-4.266667c-2.133333-2.133333-4.266667-4.266667-4.266666-6.4-2.133333-2.133333-4.266667-4.266667-6.4-4.266666 0 0-2.133333-2.133333-4.266667-2.133334s-2.133333-2.133333-4.266667-2.133333-2.133333 0-4.266666-2.133333H256c-23.466667 0-42.666667 19.2-42.666667 42.666666s19.2 42.666667 42.666667 42.666667h68.266667l-183.466667 183.466667c-17.066667 17.066667-17.066667 42.666667 0 59.733333 8.533333 8.533333 19.2 12.8 29.866667 12.8s21.333333-4.266667 29.866666-12.8l183.466667-183.466667V768c0 23.466667 19.2 42.666667 42.666667 42.666667M823.466667 140.8L640 324.266667V256c0-23.466667-19.2-42.666667-42.666667-42.666667s-42.666667 19.2-42.666666 42.666667v183.466667c0 2.133333 0 2.133333 2.133333 4.266666 0 2.133333 2.133333 2.133333 2.133333 4.266667s2.133333 2.133333 2.133334 4.266667c2.133333 2.133333 4.266667 4.266667 4.266666 6.4 2.133333 2.133333 4.266667 4.266667 6.4 4.266666 0 0 2.133333 2.133333 4.266667 2.133334s2.133333 2.133333 4.266667 2.133333 2.133333 0 4.266666 2.133333c2.133333 0 2.133333 0 4.266667 2.133334H768c23.466667 0 42.666667-19.2 42.666667-42.666667s-19.2-42.666667-42.666667-42.666667h-68.266667l183.466667-183.466666c17.066667-17.066667 17.066667-42.666667 0-59.733334-17.066667-19.2-42.666667-19.2-59.733333-2.133333" fill="#aaaaaa" p-id="7830"></path></svg>