<?xml version="1.0" standalone="no"?><!DOCTYPE svg PUBLIC "-//W3C//DTD SVG 1.1//EN" "http://www.w3.org/Graphics/SVG/1.1/DTD/svg11.dtd"><svg t="1616988307720" class="icon" viewBox="0 0 1024 1024" version="1.1" xmlns="http://www.w3.org/2000/svg" p-id="7908" xmlns:xlink="http://www.w3.org/1999/xlink" width="200" height="200"><defs><style type="text/css"></style></defs><path d="M849.194667 978.432H179.072c-73.045333 0-132.138667-52.906667-132.138667-118.186667V337.92c0-65.28 59.093333-118.186667 132.138667-118.186667h670.122667C922.24 219.733333 981.333333 272.64 981.333333 337.92v522.368c0 65.28-59.093333 118.186667-132.138666 118.186667zM179.072 313.002667c-21.76 0-38.826667 12.416-38.826667 24.874666v522.368c0 10.922667 17.066667 24.874667 38.826667 24.874667h670.122667c21.76 0 38.826667-12.416 38.826666-24.874667V337.92c0-10.88-17.066667-24.874667-38.826666-24.874667H179.072z" p-id="7909" fill="#aaaaaa"></path><path d="M513.365333 313.002667c-7.765333 0-17.109333-1.578667-24.874666-6.229334L207.061333 132.650667a47.488 47.488 0 0 1-15.530666-63.744c12.416-21.76 41.984-27.989333 63.744-15.573334l281.386666 174.165334c21.76 13.994667 27.989333 41.941333 15.573334 63.744-7.765333 13.994667-23.338667 21.76-38.869334 21.76z" p-id="7910" fill="#aaaaaa"></path><path d="M513.365333 313.002667c-15.573333 0-31.104-7.765333-40.448-21.76a45.781333 45.781333 0 0 1 15.573334-63.744l282.965333-175.701334a45.781333 45.781333 0 0 1 63.744 15.530667c13.994667 21.76 6.186667 51.328-15.573333 63.744L538.24 306.773333a45.653333 45.653333 0 0 1-24.874667 6.229334z" p-id="7911" fill="#aaaaaa"></path></svg>