<?xml version="1.0" standalone="no"?><!DOCTYPE svg PUBLIC "-//W3C//DTD SVG 1.1//EN" "http://www.w3.org/Graphics/SVG/1.1/DTD/svg11.dtd"><svg t="1616222399588" class="icon" viewBox="0 0 1024 1024" version="1.1" xmlns="http://www.w3.org/2000/svg" p-id="6186" xmlns:xlink="http://www.w3.org/1999/xlink" width="200" height="200"><defs><style type="text/css"></style></defs><path d="M886.786 362.199l-0.02 500h-749.98l0.01-500h196.177c31.82 65.653 100.017 111.125 178.813 111.125S658.779 427.853 690.6 362.199h196.186m-0.019-83.333H626.37c0 61.36-51.29 111.124-114.583 111.124s-114.583-49.764-114.583-111.124H136.797c-46.031 0-83.344 37.292-83.344 83.333v500c0 46.021 37.313 83.333 83.344 83.333h749.97c46.04 0 83.354-37.313 83.354-83.333v-500c-0.001-46.041-37.314-83.333-83.354-83.333z" p-id="6187" fill="#ffffff"></path><path d="M865.953 319.739H782.62v-125c0-22.97-16.357-41.667-36.458-41.667h-468.75c-20.101 0-36.458 18.697-36.458 41.667v125H157.62v-125c0-68.929 53.742-125 119.792-125h468.75c66.05 0 119.791 56.071 119.791 125v125z m-125 463.44H282.62c-23.011 0-41.667-18.656-41.667-41.666 0-23.011 18.656-41.667 41.667-41.667h458.333c23.011 0 41.667 18.656 41.667 41.667 0 23.009-18.656 41.666-41.667 41.666z" p-id="6188" fill="#ffffff"></path></svg>