<?xml version="1.0" standalone="no"?><!DOCTYPE svg PUBLIC "-//W3C//DTD SVG 1.1//EN" "http://www.w3.org/Graphics/SVG/1.1/DTD/svg11.dtd"><svg t="1616218916138" class="icon" viewBox="0 0 1024 1024" version="1.1" xmlns="http://www.w3.org/2000/svg" p-id="5512" xmlns:xlink="http://www.w3.org/1999/xlink" width="200" height="200"><defs><style type="text/css"></style></defs><path d="M148.09088 981.05344c-57.15456 0-103.64928-46.49472-103.64928-103.64416v-218.63424c0-57.14944 46.49472-103.64416 103.64928-103.64416h218.63936c57.14944 0 103.64416 46.49472 103.64416 103.64416v218.63424c0 57.14944-46.49472 103.64416-103.64416 103.64416H148.09088z m0-364.3904c-23.2192 0-42.112 18.88768-42.112 42.112v218.63424c0 23.2192 18.8928 42.112 42.112 42.112h218.63936c23.2192 0 42.112-18.88768 42.112-42.112v-218.63424c0-23.2192-18.88768-42.112-42.112-42.112H148.09088zM658.24768 981.05344c-57.15456 0-103.64928-46.49472-103.64928-103.64416v-218.63424c0-57.14944 46.49472-103.64416 103.64928-103.64416h218.62912c57.15456 0 103.64928 46.49472 103.64928 103.64416v218.63424c0 57.14944-46.49472 103.64416-103.64928 103.64416h-218.62912z m0-364.3904c-23.2192 0-42.11712 18.88768-42.11712 42.112v218.63424c0 23.2192 18.8928 42.112 42.11712 42.112h218.62912c23.2192 0 42.11712-18.88768 42.11712-42.112v-218.63424c0-23.2192-18.8928-42.112-42.11712-42.112h-218.62912zM149.05344 470.90688c-57.14944 0-103.64416-46.49984-103.64416-103.64928V148.61824c0-57.15456 46.49472-103.64928 103.64416-103.64928h218.63936c57.14944 0 103.64928 46.49472 103.64928 103.64928v218.63424c0 57.15456-46.49984 103.64928-103.64928 103.64928H149.05344z m0-364.39552c-23.2192 0-42.112 18.8928-42.112 42.112V367.2576c0 23.2192 18.88768 42.112 42.112 42.112h218.63424c23.2192 0 42.112-18.88768 42.112-42.112V148.61824c0-23.2192-18.8928-42.112-42.112-42.112H149.05344zM672.90624 261.89312a26.97728 26.97728 0 0 1-26.94656-26.93632c0-50.81088 41.33888-92.15488 92.14976-92.15488a26.97216 26.97216 0 0 1 26.94656 26.93632c0 7.19872-2.80576 13.96224-7.88992 19.05152s-11.84768 7.88992-19.0464 7.88992c-21.10976 0-38.29248 17.17248-38.29248 38.27712a26.9568 26.9568 0 0 1-26.92096 26.93632z" p-id="5513" fill="#ffa9c4"></path><path d="M963.02592 488.02816a28.0064 28.0064 0 0 1-19.94752-8.2176l-79.02208-79.0272-3.90656 2.78528a196.11648 196.11648 0 0 1-114.42688 36.59264c-108.94848 0-197.59104-88.64256-197.59104-197.59616S636.7744 44.97408 745.72288 44.96896c108.9536 0.00512 197.60128 88.64768 197.60128 197.59616 0 41.27744-12.66176 80.8448-36.59776 114.42176l-2.78528 3.90656 79.03232 79.0272a28.2368 28.2368 0 0 1 0 39.88992 28.0064 28.0064 0 0 1-19.94752 8.2176z m-217.30816-386.64192c-77.8496 0-141.17888 63.3344-141.17888 141.184s63.3344 141.184 141.184 141.184c77.84448 0 141.17888-63.33952 141.17888-141.184 0-37.65248-14.69952-73.09312-41.3952-99.7888-26.68544-26.69568-62.12608-41.3952-99.7888-41.3952z" p-id="5514" fill="#ffa9c4"></path></svg>