<?xml version="1.0" standalone="no"?><!DOCTYPE svg PUBLIC "-//W3C//DTD SVG 1.1//EN" "http://www.w3.org/Graphics/SVG/1.1/DTD/svg11.dtd"><svg t="1616218761653" class="icon" viewBox="0 0 1024 1024" version="1.1" xmlns="http://www.w3.org/2000/svg" p-id="4907" xmlns:xlink="http://www.w3.org/1999/xlink" width="200" height="200"><defs><style type="text/css"></style></defs><path d="M996.21376 514.2528l-461.11232-461.1072a32.60416 32.60416 0 0 0-46.26432 0c-0.11264 0.11264-0.1792 0.25088-0.29184 0.36352-0.11264 0.10752-0.25088 0.1792-0.3584 0.28672L27.0848 514.2528l-0.16384 0.16384a32.59904 32.59904 0 0 0 0.16384 46.10048 33.2544 33.2544 0 0 0 46.33088 0l438.53824-437.91872 437.92384 437.91872a32.7424 32.7424 0 0 0 46.336-46.26432zM739.82464 192.73216h97.8688v97.21856a31.95904 31.95904 0 0 0 32.67072 32.53248 32.59904 32.59904 0 0 0 32.53248-32.59904V159.41632a31.9488 31.9488 0 0 0-32.60416-32.53248c-2.22208 0-4.38272 0.22528-6.48704 0.65024h-123.98592a31.9488 31.9488 0 0 0-32.59904 32.59904 32.60416 32.60416 0 0 0 32.60416 32.59904z" p-id="4908" fill="#ffa9c4"></path><path d="M870.36416 518.8096a33.24928 33.24928 0 0 0-32.67072 32.53248v358.74816h-195.6096v-80.43008l-0.00512-5.86752c-0.29696-13.06624-8.40704-21.25312-19.74784-24.46336a32.31232 32.31232 0 0 0-13.50144-3.28704H413.16352l-0.59392 0.00512a31.9488 31.9488 0 0 0-31.36 32.53248l-0.06656 0.06656c0 0.4352 0.04608 0.84992 0.06656 1.28v80.16896H185.6v-358.68672a32.63488 32.63488 0 0 0-65.26976 0v391.28064a32.64 32.64 0 0 0 32.63488 32.64c0.24064 0 0.46592-0.03072 0.70656-0.03584h260.20352a31.9488 31.9488 0 0 0 32.5376-32.6656l-0.01536-0.34304c0-0.08192 0.01536-0.15872 0.01536-0.24576V861.184h130.47296v80.85504l0.00512 0.50688-0.00512 0.14336a32.59904 32.59904 0 0 0 32.53248 32.60416h260.56192c0.10752 0 0.19968 0.01536 0.30208 0.01536 0.11264 0 0.21504-0.01536 0.32768-0.01536a31.94368 31.94368 0 0 0 32.28672-32.4608l0.00512-0.11264v-391.31136a33.2544 33.2544 0 0 0-32.5376-32.59904z" p-id="4909" fill="#ffa9c4"></path><path d="M527.91296 541.568c-43.136-0.93184-78.86848 33.28-79.80032 76.42112-0.93184 43.136 33.28512 78.86848 76.42112 79.80032 43.136 0.93696 78.86848-33.28512 79.80032-76.42112 0.93696-43.136-33.28512-78.86336-76.42112-79.80032z m-2.2528 104.1408a26.04544 26.04544 0 0 1-25.47712-26.58816 26.04544 26.04544 0 0 1 26.5984-25.472 26.04032 26.04032 0 0 1-1.12128 52.06016zM732.32896 460.288a260.51072 260.51072 0 0 0-56.66816-53.3248 26.04032 26.04032 0 1 0-29.84448 42.59328 208.23552 208.23552 0 0 1 45.16864 43.43808 26.04544 26.04544 0 0 0 41.06752-31.92832l0.27648-0.77824z m41.29792 77.99296a26.0352 26.0352 0 0 0-31.79008-18.59072 26.04032 26.04032 0 0 0-17.54624 34.97984 208.13824 208.13824 0 0 1 10.22976 69.51424 26.03008 26.03008 0 0 0 25.49248 26.5728 26.04032 26.04032 0 0 0 26.57792-25.45152 260.61824 260.61824 0 0 0-12.96384-87.02464zM608.2048 370.9696l0.04096-0.10752a261.1456 261.1456 0 0 0-83.08224-13.55264c-133.10976 0-242.90816 99.48672-259.29728 228.1472l-0.3584 0.59904-8.40704-8.7808a26.04544 26.04544 0 0 0-36.72576 36.1984l50.944 53.1968a26.0352 26.0352 0 0 0 36.7104 0.7936l53.20192-50.93888a26.05056 26.05056 0 0 0-35.9168-37.51936l-7.69536 6.61504s-0.66048-0.55808-1.81248-1.49504c16.54784-100.736 103.94112-177.6128 209.36704-177.6128 23.4752 0 46.03904 3.87072 67.15392 10.9056l0.06144-0.1792a24.38144 24.38144 0 0 0 9.05728 1.77664 24.56064 24.56064 0 0 0 24.56064-24.55552c-0.01024-11.19232-7.552-20.53632-17.80224-23.49056z" p-id="4910" fill="#ffa9c4"></path></svg>