<?xml version="1.0" standalone="no"?><!DOCTYPE svg PUBLIC "-//W3C//DTD SVG 1.1//EN" "http://www.w3.org/Graphics/SVG/1.1/DTD/svg11.dtd"><svg t="1616218609531" class="icon" viewBox="0 0 1024 1024" version="1.1" xmlns="http://www.w3.org/2000/svg" p-id="4445" xmlns:xlink="http://www.w3.org/1999/xlink" width="200" height="200"><defs><style type="text/css"></style></defs><path d="M394.16832 366.26432V201.13408c0-67.22048 54.69184-121.91232 121.91232-121.91232s121.91232 54.69184 121.91232 121.91232v165.13024h61.44V201.13408c0-101.26336-82.08896-183.35232-183.35232-183.35232S332.72832 99.87072 332.72832 201.13408v165.13024h61.44z" p-id="4446" fill="#ffffff"></path><path d="M360.40704 354.944c-43.94496 0-79.56992 35.62496-79.56992 79.56992s35.62496 79.56992 79.56992 79.56992 79.56992-35.62496 79.56992-79.56992-35.62496-79.56992-79.56992-79.56992z m0 97.69472c-9.99424 0-18.12992-8.13056-18.12992-18.12992s8.13056-18.12992 18.12992-18.12992 18.12992 8.13056 18.12992 18.12992-8.13568 18.12992-18.12992 18.12992zM669.73184 354.944c-43.93984 0-79.5648 35.62496-79.5648 79.56992s35.62496 79.56992 79.5648 79.56992c43.95008 0 79.56992-35.62496 79.56992-79.56992s-35.61984-79.56992-79.56992-79.56992z m0 97.69472c-9.98912 0-18.1248-8.13056-18.1248-18.12992s8.13568-18.12992 18.1248-18.12992c9.99936 0 18.12992 8.13056 18.12992 18.12992s-8.13056 18.12992-18.12992 18.12992zM842.1376 773.66272H239.10912a30.72 30.72 0 0 0 0 61.44h603.0336c31.45728 0 57.04704 25.59488 57.04704 57.05216s-25.58976 57.04704-57.04704 57.04704H244.51584v61.44H842.1376c65.4336 0 118.48704-53.04832 118.48704-118.48704 0-65.43872-53.04832-118.49216-118.48704-118.49216z" p-id="4447" fill="#ffffff"></path><path d="M133.0688 875.97056L210.79552 306.12992c0.84992-0.01536 1.74592-0.02048 2.70848-0.02048 8.86272 0 19.63008 0.65024 31.03232 1.33632 14.208 0.85504 30.31552 1.82784 47.21664 1.82784h40.97536v-61.44h-40.97536c-76.34944 0-142.32576-22.72256-142.32576 53.62176L71.54688 872.40192c0 76.34944 61.89056 138.24 138.24 138.24h519.05024v-61.44H209.78688c-41.14944 0-74.84928-32.5376-76.71808-73.23136zM936.04352 716.46208l-56.36096-415.00672c-14.19264-74.37824-57.8048-53.62176-134.15424-53.62176h-46.09536v61.44h46.09536c16.67584 0 31.46752-0.85504 44.52864-1.6128 9.73312-0.5632 18.14528-1.0496 25.06752-1.0496 1.024 0 1.95584 0.01024 2.79552 0.03072 0.36864 1.40288 0.75776 3.072 1.16224 5.0432l56.07424 413.0048a30.72512 30.72512 0 0 0 34.56 26.33216 30.73024 30.73024 0 0 0 26.32704-34.56z" p-id="4448" fill="#ffffff"></path></svg>