<?xml version="1.0" standalone="no"?><!DOCTYPE svg PUBLIC "-//W3C//DTD SVG 1.1//EN" "http://www.w3.org/Graphics/SVG/1.1/DTD/svg11.dtd"><svg t="1617950996232" class="icon" viewBox="0 0 1024 1024" version="1.1" xmlns="http://www.w3.org/2000/svg" p-id="3343" xmlns:xlink="http://www.w3.org/1999/xlink" width="200" height="200"><defs><style type="text/css"></style></defs><path d="M96.8 98.2h829v829h-829z" fill="#7B78EB" p-id="3344"></path><path d="M704.2 728.9L519.7 927.1H96.8v-406H231c-5.5 11-8.6 23.4-8.6 36.5 0 45.4 36.8 82.2 82.2 82.2s82.2-36.8 82.2-82.2c0-13.1-3.1-25.5-8.6-36.5h141.6l184.4 207.8z" fill="#9796ED" p-id="3345"></path><path d="M727.5 318.1L519.7 504.2v139.9c11-5.5 23.4-8.6 36.5-8.6 45.4 0 82.2 36.8 82.2 82.2s-36.8 82.2-82.2 82.2c-13.1 0-25.5-3.1-36.5-8.6v135.8h422.9V504.2L727.5 318.1z" fill="#7B78EB" p-id="3346"></path><path d="M942.7 98.2v422.9H801.4c5.5-11 8.6-23.4 8.6-36.5 0-45.4-36.8-82.2-82.2-82.2-45.4 0-82.2 36.8-82.2 82.2 0 13.1 3.1 25.5 8.6 36.5H519.7V379.5c-11 5.5-23.4 8.6-36.5 8.6-45.4 0-82.2-36.8-82.2-82.2 0-45.4 36.8-82.2 82.2-82.2 13.1 0 25.5 3.1 36.5 8.6V98.2h423z" fill="#9796ED" p-id="3347"></path><path d="M338.6 365.7c0-62.7 44.4-88.4 98.8-57l254.6 147c54.3 31.4 54.3 82.7 0 114l-254.6 147c-54.3 31.4-98.8 5.7-98.8-57v-294z" fill="#FDDE80" p-id="3348"></path></svg>