<?xml version="1.0" standalone="no"?><!DOCTYPE svg PUBLIC "-//W3C//DTD SVG 1.1//EN" "http://www.w3.org/Graphics/SVG/1.1/DTD/svg11.dtd"><svg t="1617942300551" class="icon" viewBox="0 0 1024 1024" version="1.1" xmlns="http://www.w3.org/2000/svg" p-id="17079" xmlns:xlink="http://www.w3.org/1999/xlink" width="200" height="200"><defs><style type="text/css"></style></defs><path d="M718.957854 1024H305.042146A212.842912 212.842912 0 0 1 92.199234 811.157088V212.842912A213.333333 213.333333 0 0 1 305.042146 0h413.915708a213.333333 213.333333 0 0 1 212.842912 212.842912v598.314176a212.842912 212.842912 0 0 1-212.842912 212.842912zM305.042146 73.563218A139.279693 139.279693 0 0 0 165.762452 212.842912v598.314176a139.279693 139.279693 0 0 0 139.279694 139.279694h413.915708a139.279693 139.279693 0 0 0 139.279694-139.279694V212.842912a139.279693 139.279693 0 0 0-139.279694-139.279694z" fill="#ffa9c4" p-id="17080"></path><path d="M512 588.505747a171.64751 171.64751 0 0 1-171.64751-171.647509v-16.183908a171.64751 171.64751 0 0 1 343.29502 0 123.095785 123.095785 0 0 1 0 14.712643A171.64751 171.64751 0 0 1 512 588.505747z m0-269.731801a98.084291 98.084291 0 0 0-98.084291 89.747127 46.099617 46.099617 0 0 0 0 8.337165 98.084291 98.084291 0 1 0 196.168582 0 34.819923 34.819923 0 0 0 0-6.865901 98.084291 98.084291 0 0 0-98.084291-90.237548z" fill="#ffa9c4" p-id="17081"></path><path d="M646.8659 441.37931a36.781609 36.781609 0 0 1-6.375479-72.582375 841.072797 841.072797 0 0 0 231.478928-77.48659 37.272031 37.272031 0 0 1 49.042145 15.693486 36.781609 36.781609 0 0 1-16.183908 49.042146A882.758621 882.758621 0 0 1 652.750958 441.37931zM376.643678 441.37931h-6.375479A879.32567 879.32567 0 0 1 118.681992 356.536398a36.291188 36.291188 0 0 1-16.183908-49.042145 36.781609 36.781609 0 0 1 49.042146-16.183908 817.042146 817.042146 0 0 0 231.478927 78.957854A36.781609 36.781609 0 0 1 376.643678 441.37931z" fill="#ffa9c4" p-id="17082"></path></svg>