<?xml version="1.0" standalone="no"?><!DOCTYPE svg PUBLIC "-//W3C//DTD SVG 1.1//EN" "http://www.w3.org/Graphics/SVG/1.1/DTD/svg11.dtd"><svg t="1617941248618" class="icon" viewBox="0 0 1024 1024" version="1.1" xmlns="http://www.w3.org/2000/svg" p-id="5638" xmlns:xlink="http://www.w3.org/1999/xlink" width="200" height="200"><defs><style type="text/css"></style></defs><path d="M489.42 161c122.61 0 231.073 85.298 268.803 200.697C871.4 376.747 961 482.11 961 612.564c0 129.145-92.437 233.704-208.682 250.39l-3.53 0.478H277.213C159.313 863.432 65 763.09 65 637.65c0-100.348 61.309-185.641 141.469-215.746C225.339 276.404 343.232 161 489.42 161z m0.125 69c-53.065 0-102.758 20.392-141.928 57.164-38.83 36.454-64.705 86.674-72.232 141.754l-0.223 1.67-5.23 40.327-38.068 14.297C176.277 506.088 135 567.367 135 636.5c0 87.443 63.218 155.577 141.09 156.931l2.364 0.02h464.378l1.238-0.187c81.926-13.125 145.619-88.112 146.91-178.904l0.02-2.813c0-93.905-61.97-170.347-140.597-182.158l-2.388-0.338-42.16-5.606-13.216-40.425c-28.985-88.653-111.335-151.747-200.393-153l-2.701-0.019z" p-id="5639" fill="#f4ea2a"></path></svg>