<?xml version="1.0" standalone="no"?><!DOCTYPE svg PUBLIC "-//W3C//DTD SVG 1.1//EN" "http://www.w3.org/Graphics/SVG/1.1/DTD/svg11.dtd"><svg t="1617942192959" class="icon" viewBox="0 0 1024 1024" version="1.1" xmlns="http://www.w3.org/2000/svg" p-id="15730" xmlns:xlink="http://www.w3.org/1999/xlink" width="200" height="200"><defs><style type="text/css"></style></defs><path d="M648.51968 307.2c0-75.39712-61.14304-136.52992-136.52992-136.52992-75.39712 0-136.54016 61.1328-136.54016 136.52992h-68.27008c0-113.13152 91.70944-204.8 204.8-204.8s204.78976 91.66848 204.78976 204.8h-68.2496zM920.68864 854.272l-79.80032-478.79168H183.11168L103.3216 854.272c-6.1952 36.99712 19.456 67.33824 57.02656 67.33824h703.30368c37.53984 0 63.20128-30.34112 57.0368-67.33824zM584.51968 819.2H307.18976v-51.2h277.32992a81.1008 81.1008 0 0 0 81.05984-81.05984 81.05984 81.05984 0 0 0-81.05984-81.08032H471.3472l40.6016 40.6016-36.15744 36.1984-78.27456-78.26432a34.11968 34.11968 0 0 1 0-48.26112l78.27456-78.27456 36.1984 36.1984-40.6016 40.59136h113.13152c73.0624 0 132.25984 59.19744 132.25984 132.28032C716.77952 760.00256 657.58208 819.2 584.51968 819.2z" p-id="15731" fill="#ffa9c4"></path></svg>