<?xml version="1.0" standalone="no"?><!DOCTYPE svg PUBLIC "-//W3C//DTD SVG 1.1//EN" "http://www.w3.org/Graphics/SVG/1.1/DTD/svg11.dtd"><svg t="1617947580029" class="icon" viewBox="0 0 1024 1024" version="1.1" xmlns="http://www.w3.org/2000/svg" p-id="1377" xmlns:xlink="http://www.w3.org/1999/xlink" width="200" height="200"><defs><style type="text/css"></style></defs><path d="M539.807289 144.418133l0-20.7872c0-15.36-12.447289-27.807289-27.807289-27.807289s-27.807289 12.447289-27.807289 27.807289l0 20.7872C252.040533 156.137244 65.683911 313.571556 47.547733 511.624533c22.573511-16.201956 56.820622-26.544356 95.175111-26.544356 59.687822 0 109.420089 25.031111 120.672711 58.242844l4.949333 0c11.537067-32.995556 61.121422-57.810489 120.547556-57.810489 38.468267 0 72.726756 10.433422 95.300267 26.715022L484.192711 791.096889c0 38.843733-31.607467 70.4512-70.4512 70.4512s-70.4512-31.607467-70.4512-70.4512c0-15.36-12.447289-27.807289-27.807289-27.807289s-27.807289 12.447289-27.807289 27.807289c0 69.518222 56.558933 126.077156 126.077156 126.077156S539.807289 860.615111 539.807289 791.096889L539.807289 511.772444c22.562133-16.270222 56.809244-26.692267 95.254756-26.692267 59.687822 0 109.420089 25.031111 120.672711 58.242844l4.949333 0c11.537067-32.995556 61.121422-57.810489 120.547556-57.810489 38.377244 0 72.647111 10.353778 95.220622 26.578489C958.5664 313.821867 772.118756 156.16 539.807289 144.418133z" p-id="1378" fill="#ffa9c4"></path></svg>