<?xml version="1.0" standalone="no"?><!DOCTYPE svg PUBLIC "-//W3C//DTD SVG 1.1//EN" "http://www.w3.org/Graphics/SVG/1.1/DTD/svg11.dtd"><svg t="1616295484800" class="icon" viewBox="0 0 1024 1024" version="1.1" xmlns="http://www.w3.org/2000/svg" p-id="7260" xmlns:xlink="http://www.w3.org/1999/xlink" width="200" height="200"><defs><style type="text/css"></style></defs><path d="M160 480h704v64H160zM128 128h192V64H96a32 32 0 0 0-32 32v224h64zM928 64h-224v64h192v192h64V96a32 32 0 0 0-32-32zM128 704H64v224a32 32 0 0 0 32 32h224v-64H128zM896 896h-192v64h224a32 32 0 0 0 32-32v-224h-64z" p-id="7261" fill="#ffffff"></path></svg>