<?xml version="1.0" standalone="no"?><!DOCTYPE svg PUBLIC "-//W3C//DTD SVG 1.1//EN" "http://www.w3.org/Graphics/SVG/1.1/DTD/svg11.dtd"><svg t="1616248377614" class="icon" viewBox="0 0 1024 1024" version="1.1" xmlns="http://www.w3.org/2000/svg" p-id="6879" xmlns:xlink="http://www.w3.org/1999/xlink" width="200" height="200"><defs><style type="text/css"></style></defs><path d="M890.56 230.4l-111.68 388.16H315.52L243.84 112.96a32 32 0 0 0-32-27.52H57.6v64h128L256 655.04a32 32 0 0 0 32 27.52h515.2a32 32 0 0 0 32-23.04l116.8-411.52z" p-id="6880" fill="#ffffff"></path><path d="M334.72 848m-80 0a80 80 0 1 0 160 0 80 80 0 1 0-160 0Z" p-id="6881" fill="#ffffff"></path><path d="M740.48 848m-80 0a80 80 0 1 0 160 0 80 80 0 1 0-160 0Z" p-id="6882" fill="#ffffff"></path><path d="M361.6 296h384v64h-384z" p-id="6883" fill="#ffffff"></path></svg>