<?xml version="1.0" standalone="no"?><!DOCTYPE svg PUBLIC "-//W3C//DTD SVG 1.1//EN" "http://www.w3.org/Graphics/SVG/1.1/DTD/svg11.dtd"><svg t="1616248054863" class="icon" viewBox="0 0 1024 1024" version="1.1" xmlns="http://www.w3.org/2000/svg" p-id="6493" xmlns:xlink="http://www.w3.org/1999/xlink" width="200" height="200"><defs><style type="text/css"></style></defs><path d="M768 960a32 32 0 0 1-15.36-3.84L512 822.4l-241.6 133.76a32 32 0 0 1-47.04-32l46.4-285.12-196.8-201.6a32 32 0 0 1-7.36-32 32 32 0 0 1 25.6-21.44l270.4-41.28 121.28-258.24a32 32 0 0 1 58.24 0l121.28 258.24L932.8 384a32 32 0 0 1 25.6 21.44 32 32 0 0 1-7.36 32l-196.8 201.6L800 922.88a32 32 0 0 1-13.12 32A32 32 0 0 1 768 960z m-256-206.08a32 32 0 0 1 15.36 3.84l199.68 110.4-38.72-236.16a32 32 0 0 1 8.64-27.2l164.48-168.64-224-34.56a32 32 0 0 1-24.32-18.24L512 171.2 412.48 384a32 32 0 0 1-24.32 18.24l-224 34.56 164.48 168.64a32 32 0 0 1 8.64 27.2l-40.32 235.52 199.68-110.4a32 32 0 0 1 15.36-3.84z" p-id="6494" fill="#ffffff"></path></svg>